<mxGraphModel dx="782" dy="521" grid="1" gridSize="10" guides="1" tooltips="1" connect="1" arrows="1" fold="1" page="1" pageScale="1" pageWidth="827" pageHeight="1169" math="0" shadow="0">
  <root>
    <mxCell id="0" />
    <mxCell id="1" parent="0" />
    <mxCell id="_Vjc8NUrI6-QFcDWvdmF-14" value="" style="whiteSpace=wrap;html=1;aspect=fixed;fillColor=none;" parent="1" vertex="1">
      <mxGeometry x="234" y="130" width="350" height="350" as="geometry" />
    </mxCell>
    <mxCell id="_Vjc8NUrI6-QFcDWvdmF-15" value="T01. s&#39;inscrire" style="rounded=0;whiteSpace=wrap;html=1;fillColor=none;" parent="1" vertex="1">
      <mxGeometry x="340" y="180" width="120" height="60" as="geometry" />
    </mxCell>
    <mxCell id="_Vjc8NUrI6-QFcDWvdmF-16" value="T02. creer un projet" style="rounded=0;whiteSpace=wrap;html=1;fillColor=none;" parent="1" vertex="1">
      <mxGeometry x="340" y="280" width="120" height="60" as="geometry" />
    </mxCell>
    <mxCell id="_Vjc8NUrI6-QFcDWvdmF-17" value="T03. ajouter des collaborateurs " style="rounded=0;whiteSpace=wrap;html=1;fillColor=none;" parent="1" vertex="1">
      <mxGeometry x="349" y="380" width="120" height="60" as="geometry" />
    </mxCell>
    <mxCell id="_Vjc8NUrI6-QFcDWvdmF-18" value="Collaborateur " style="rounded=0;whiteSpace=wrap;html=1;fillColor=none;" parent="1" vertex="1">
      <mxGeometry x="30" y="230" width="120" height="60" as="geometry" />
    </mxCell>
    <mxCell id="_Vjc8NUrI6-QFcDWvdmF-22" value="" style="endArrow=classic;html=1;exitX=1;exitY=0.25;exitDx=0;exitDy=0;entryX=0;entryY=0.5;entryDx=0;entryDy=0;" parent="1" source="_Vjc8NUrI6-QFcDWvdmF-18" target="_Vjc8NUrI6-QFcDWvdmF-15" edge="1">
      <mxGeometry width="50" height="50" relative="1" as="geometry">
        <mxPoint x="120" y="270" as="sourcePoint" />
        <mxPoint x="170" y="220" as="targetPoint" />
      </mxGeometry>
    </mxCell>
    <mxCell id="_Vjc8NUrI6-QFcDWvdmF-23" value="F01. coordonnÃ©es" style="edgeLabel;html=1;align=center;verticalAlign=middle;resizable=0;points=[];" parent="_Vjc8NUrI6-QFcDWvdmF-22" vertex="1" connectable="0">
      <mxGeometry x="-0.3833" y="3" relative="1" as="geometry">
        <mxPoint x="-28.46" y="-11.18" as="offset" />
      </mxGeometry>
    </mxCell>
    <mxCell id="_Vjc8NUrI6-QFcDWvdmF-24" value="" style="endArrow=classic;html=1;exitX=0;exitY=0.75;exitDx=0;exitDy=0;entryX=1;entryY=0.5;entryDx=0;entryDy=0;" parent="1" source="_Vjc8NUrI6-QFcDWvdmF-15" target="_Vjc8NUrI6-QFcDWvdmF-18" edge="1">
      <mxGeometry width="50" height="50" relative="1" as="geometry">
        <mxPoint x="340" y="270" as="sourcePoint" />
        <mxPoint x="390" y="220" as="targetPoint" />
      </mxGeometry>
    </mxCell>
    <mxCell id="_Vjc8NUrI6-QFcDWvdmF-25" value="F02. notification" style="edgeLabel;html=1;align=center;verticalAlign=middle;resizable=0;points=[];" parent="_Vjc8NUrI6-QFcDWvdmF-24" vertex="1" connectable="0">
      <mxGeometry x="0.163" y="3" relative="1" as="geometry">
        <mxPoint x="3.6" y="11.76" as="offset" />
      </mxGeometry>
    </mxCell>
  </root>
</mxGraphModel>

